<svg width="71" height="69" viewBox="0 0 71 69" fill="none" xmlns="http://www.w3.org/2000/svg">
<rect width="71" height="69" rx="14" fill="#87ED06"/>
<g clip-path="url(#clip0_663_1684)">
<path d="M36 13C23.8484 13 14 22.8484 14 35C14 47.1516 23.8484 57 36 57C48.1516 57 58 47.1516 58 35C58 22.8484 48.1516 13 36 13ZM49.7328 48.7242C47.9453 50.5117 45.8742 51.9125 43.5625 52.8836C41.1734 53.8977 38.6297 54.4047 36 54.4047C33.3789 54.4047 30.8352 53.8891 28.4375 52.8836C26.1258 51.9039 24.0461 50.5031 22.2672 48.7242C20.4797 46.9367 19.0789 44.8656 18.1078 42.5539C17.0938 40.1648 16.5781 37.6211 16.5781 35C16.5781 32.3789 17.0937 29.8352 18.0992 27.4375C19.0789 25.1258 20.4797 23.0461 22.2586 21.2672C24.0547 19.4797 26.1258 18.0789 28.4375 17.0992C30.8352 16.0937 33.3789 15.5781 36 15.5781C38.6211 15.5781 41.1648 16.0937 43.5625 17.0992C45.8742 18.0789 47.9539 19.4797 49.7328 21.2586C51.5203 23.0461 52.9211 25.1172 53.8922 27.4289C54.9062 29.818 55.4133 32.3617 55.4133 34.9914C55.4133 37.6125 54.8977 40.1562 53.8922 42.5539C52.9125 44.8656 51.5117 46.9453 49.7328 48.7242Z" fill="#181617"/>
<path d="M38.9046 27.4977C39.7897 27.4977 40.7351 27.7727 40.7351 27.7727L41.3022 24.404C41.3022 24.404 40.0991 23.9915 37.2288 23.9915C35.4671 23.9915 34.4444 24.6618 33.6968 25.6501C32.9921 26.5868 32.9663 28.0907 32.9663 29.0618V31.2704H30.689V34.5618H32.9663V45.9915H37.2288V34.5618H40.6062L40.8554 31.2704H37.2288V28.7008C37.2288 27.8157 38.0194 27.4977 38.9046 27.4977Z" fill="#181617"/>
</g>
<defs>
<clipPath id="clip0_663_1684">
<rect width="44" height="44" fill="white" transform="translate(14 13)"/>
</clipPath>
</defs>
</svg>
