<svg width="31" height="30" viewBox="0 0 31 30" fill="none" xmlns="http://www.w3.org/2000/svg">
<g clip-path="url(#clip0_254_1604)">
<path d="M15.5 0C6.93867 0 0 6.71484 0 15C0 23.2852 6.93867 30 15.5 30C24.0613 30 31 23.2852 31 15C31 6.71484 24.0613 0 15.5 0ZM25.1754 24.3574C23.916 25.5762 22.4568 26.5312 20.8281 27.1934C19.1449 27.8848 17.3527 28.2305 15.5 28.2305C13.6533 28.2305 11.8611 27.8789 10.1719 27.1934C8.54316 26.5254 7.07793 25.5703 5.82461 24.3574C4.56523 23.1387 3.57832 21.7266 2.89414 20.1504C2.17969 18.5215 1.81641 16.7871 1.81641 15C1.81641 13.2129 2.17969 11.4785 2.88809 9.84375C3.57832 8.26758 4.56523 6.84961 5.81855 5.63672C7.08398 4.41797 8.54316 3.46289 10.1719 2.79492C11.8611 2.10937 13.6533 1.75781 15.5 1.75781C17.3467 1.75781 19.1389 2.10937 20.8281 2.79492C22.4568 3.46289 23.9221 4.41797 25.1754 5.63086C26.4348 6.84961 27.4217 8.26172 28.1059 9.83789C28.8203 11.4668 29.1775 13.2012 29.1775 14.9941C29.1775 16.7812 28.8143 18.5156 28.1059 20.1504C27.4156 21.7266 26.4287 23.1445 25.1754 24.3574Z" fill="#80858A"/>
<path d="M17.5466 9.88477C18.1702 9.88477 18.8362 10.0723 18.8362 10.0723L19.2358 7.77539C19.2358 7.77539 18.3882 7.49414 16.3659 7.49414C15.1247 7.49414 14.4042 7.95117 13.8774 8.625C13.381 9.26367 13.3628 10.2891 13.3628 10.9512V12.457H11.7583V14.7012H13.3628V22.4941H16.3659V14.7012H18.7454L18.921 12.457H16.3659V10.7051C16.3659 10.1016 16.9229 9.88477 17.5466 9.88477Z" fill="#80858A"/>
</g>
<defs>
<clipPath id="clip0_254_1604">
<rect width="31" height="30" fill="white"/>
</clipPath>
</defs>
</svg>
