<svg width="71" height="69" viewBox="0 0 71 69" fill="none" xmlns="http://www.w3.org/2000/svg">
<rect width="71" height="69" rx="14" fill="#87ED06"/>
<path d="M28.7501 55.8334H41.2501C51.6667 55.8334 55.8334 51.6667 55.8334 41.2501V28.7501C55.8334 18.3334 51.6667 14.1667 41.2501 14.1667H28.7501C18.3334 14.1667 14.1667 18.3334 14.1667 28.7501V41.2501C14.1667 51.6667 18.3334 55.8334 28.7501 55.8334Z" stroke="#181617" stroke-width="3" stroke-linecap="round" stroke-linejoin="round"/>
<path d="M34.9999 42.2916C39.027 42.2916 42.2916 39.027 42.2916 34.9999C42.2916 30.9728 39.027 27.7083 34.9999 27.7083C30.9728 27.7083 27.7083 30.9728 27.7083 34.9999C27.7083 39.027 30.9728 42.2916 34.9999 42.2916Z" stroke="#181617" stroke-width="3" stroke-linecap="round" stroke-linejoin="round"/>
<path d="M46.7419 24.5833H46.7679" stroke="#181617" stroke-width="3" stroke-linecap="round" stroke-linejoin="round"/>
</svg>
