<svg width="34" height="34" viewBox="0 0 34 34" fill="none" xmlns="http://www.w3.org/2000/svg">
<path d="M12.7499 31.1668H21.2499C28.3333 31.1668 31.1666 28.3335 31.1666 21.2502V12.7502C31.1666 5.66683 28.3333 2.8335 21.2499 2.8335H12.7499C5.66659 2.8335 2.83325 5.66683 2.83325 12.7502V21.2502C2.83325 28.3335 5.66659 31.1668 12.7499 31.1668Z" stroke="#ED4101" stroke-width="2" stroke-linecap="round" stroke-linejoin="round"/>
<path d="M17.0001 21.9582C19.7385 21.9582 21.9584 19.7383 21.9584 16.9998C21.9584 14.2614 19.7385 12.0415 17.0001 12.0415C14.2617 12.0415 12.0417 14.2614 12.0417 16.9998C12.0417 19.7383 14.2617 21.9582 17.0001 21.9582Z" stroke="#ED4101" stroke-width="2" stroke-linecap="round" stroke-linejoin="round"/>
<path d="M24.9844 9.9165H25.0043" stroke="#ED4101" stroke-width="2" stroke-linecap="round" stroke-linejoin="round"/>
</svg>
