<?xml version="1.0" encoding="UTF-8"?>
<svg id="Layer_1" xmlns="http://www.w3.org/2000/svg" version="1.1" viewBox="0 0 86 84">
  <!-- Generator: Adobe Illustrator 30.2.1, SVG Export Plug-In . SVG Version: 2.1.1 Build 1)  -->
  <defs>
    <style>
      .st0, .st1 {
        fill: none;
        stroke: #fff;
        stroke-miterlimit: 10;
      }

      .st1 {
        stroke-width: 2px;
      }
    </style>
  </defs>
  <path class="st1" d="M66.84,10.7H19.57c-4.89,0-8.86,3.85-8.86,8.59v45.82c0,4.74,3.97,8.59,8.86,8.59h47.27c4.89,0,8.86-3.85,8.86-8.59V19.29c0-4.74-3.97-8.59-8.86-8.59h0Z"/>
  <path class="st1" d="M33.19,59.55c0,.35-.14.69-.39.94-.25.25-.59.39-.94.39h-5.66c-.35,0-.69-.14-.94-.39-.25-.25-.39-.59-.39-.94v-23.73c0-.74.6-1.33,1.33-1.33h5.66c.73,0,1.33.6,1.33,1.33v23.73Z"/>
  <path class="st1" d="M29.03,31.25c-2.17,0-4.13-1.31-4.96-3.31-.83-2.01-.37-4.32,1.16-5.85s3.85-2,5.85-1.16c2.01.83,3.31,2.79,3.31,4.96,0,2.97-2.4,5.37-5.37,5.37h0Z"/>
  <path class="st1" d="M62.77,59.65c0,.33-.13.64-.36.87-.23.23-.54.36-.87.36h-6.09c-.32,0-.64-.13-.87-.36-.23-.23-.36-.54-.36-.87v-11.11c0-1.66.49-7.27-4.34-7.27-3.74,0-4.5,3.84-4.65,5.57v12.84c0,.67-.54,1.21-1.21,1.22h-5.88c-.32,0-.64-.13-.86-.36-.23-.23-.36-.54-.36-.87v-23.94c0-.32.13-.64.36-.87.23-.23.54-.36.86-.36h5.88c.68,0,1.22.55,1.22,1.22v2.07c1.39-2.09,3.45-3.69,7.84-3.69,9.73,0,9.66,9.08,9.66,14.07v11.47Z"/>
  <path class="st0" d="M62.77,59.65"/>
</svg>