<svg xmlns="http://www.w3.org/2000/svg" id="Layer_1" version="1.1" viewBox="8.21 7.13 70.45 70.46">
  <defs>
    <style>
      .st0 {
        fill: none;
        stroke: #fff;
        stroke-miterlimit: 10;
        stroke-width: 2px;
      }
    </style>
  </defs>
  <path class="st0" d="M70.26,8.13H16.61c-4.08,0-7.4,3.31-7.4,7.4v53.66c0,4.08,3.31,7.4,7.4,7.4h53.66c4.08,0,7.4-3.31,7.4-7.4V15.52c0-4.08-3.31-7.4-7.4-7.4h0ZM64.55,37.94c-4.33,0-8.35-1.39-11.63-3.74v16.98c0,8.48-6.9,15.38-15.38,15.38-3.28,0-6.32-1.03-8.81-2.79-3.97-2.78-6.57-7.39-6.57-12.59,0-8.48,6.9-15.38,15.38-15.38.7,0,1.39.06,2.07.15v8.53c-.66-.21-1.35-.32-2.07-.32-3.87,0-7.02,3.15-7.02,7.02,0,2.7,1.53,5.04,3.77,6.22.97.51,2.08.81,3.26.81,3.78,0,6.87-3.01,7.01-6.76V17.96h8.37c0,.72.07,1.43.2,2.12.59,3.18,2.48,5.91,5.1,7.62,1.82,1.19,4,1.88,6.33,1.88v8.36ZM64.55,37.94"/>
</svg>