<svg width="71" height="69" viewBox="0 0 71 69" fill="none" xmlns="http://www.w3.org/2000/svg">
<rect width="71" height="69" rx="14" fill="#87ED06"/>
<g clip-path="url(#clip0_663_1685)">
<path d="M30.7583 39.7142V41.4556L32.2623 40.5779L41.0754 35.4351L42.5221 34.5908L41.0926 33.7179L32.2795 28.3362L30.7583 27.4073V29.1896V39.7142ZM55.8862 21.2243L55.8921 21.2305L55.898 21.2366C56.4332 21.7823 56.8555 22.7739 57.1456 23.7661C57.284 24.2389 57.381 24.6713 57.4433 24.9854C57.4743 25.1418 57.4965 25.2675 57.5106 25.3525C57.5177 25.3949 57.5227 25.4271 57.5259 25.4477L57.5286 25.4654L57.5288 25.4667L57.5324 25.497C57.5357 25.5252 57.5407 25.5678 57.5471 25.6237C57.5599 25.7355 57.5783 25.9005 57.6005 26.1112C57.6448 26.5327 57.7041 27.1362 57.7633 27.8609C57.8821 29.3128 58 31.2393 58 33.1578V36.8256C58 38.7448 57.8821 40.6713 57.7633 42.1231C57.7041 42.8477 57.6448 43.451 57.6005 43.8724C57.5783 44.083 57.5599 44.248 57.5471 44.3597C57.5407 44.4156 57.5357 44.4581 57.5324 44.4864L57.5287 44.5167L57.5286 44.518L57.5259 44.5357C57.5227 44.5563 57.5177 44.5885 57.5106 44.6309C57.4965 44.7159 57.4743 44.8416 57.4433 44.998C57.381 45.3121 57.284 45.7444 57.1456 46.2173C56.8555 47.2095 56.4332 48.2011 55.898 48.7468L55.8921 48.7529L55.8862 48.7591C54.5078 50.2135 53.0335 50.3634 52.0153 50.4669C51.9074 50.4779 51.8046 50.4883 51.7075 50.4997C48.3804 50.7414 44.2128 50.8667 40.8633 50.9314C39.1871 50.9638 37.72 50.981 36.6723 50.99C36.1484 50.9945 35.7295 50.997 35.4418 50.9984C35.2979 50.9991 35.1868 50.9995 35.1119 50.9997L35.0269 50.9999L35.0055 51L35.0004 51L34.9737 50.9997L34.869 50.9987L34.4673 50.9944C34.1193 50.9905 33.6176 50.9846 33.0035 50.9763C31.7751 50.9598 30.0977 50.9339 28.3009 50.8964C24.7153 50.8215 20.7105 50.7014 18.8184 50.5222C18.5782 50.4789 18.3197 50.446 18.0483 50.4115C16.8311 50.2566 15.3546 50.0688 14.112 48.7588L14.1063 48.7528L14.1005 48.7468C13.5654 48.2013 13.1435 47.2098 12.8537 46.2177C12.7156 45.7448 12.6187 45.3124 12.5566 44.9984C12.5256 44.842 12.5035 44.7163 12.4894 44.6313C12.4823 44.5889 12.4773 44.5567 12.4742 44.5361L12.4713 44.5169L12.4676 44.4864C12.4643 44.4581 12.4593 44.4156 12.4529 44.3597C12.4401 44.248 12.4217 44.083 12.3995 43.8724C12.3552 43.451 12.2959 42.8477 12.2367 42.1231C12.1179 40.6713 12 38.7448 12 36.8256V33.1578C12 31.2393 12.1179 29.3128 12.2367 27.8609C12.2959 27.1362 12.3552 26.5327 12.3995 26.1112C12.4217 25.9005 12.4401 25.7355 12.4529 25.6237C12.4593 25.5678 12.4643 25.5252 12.4676 25.497L12.4713 25.4665L12.4742 25.4473C12.4773 25.4267 12.4823 25.3945 12.4894 25.3521C12.5035 25.2671 12.5256 25.1414 12.5566 24.985C12.6187 24.6709 12.7156 24.2386 12.8537 23.7657C13.1435 22.7736 13.5654 21.7821 14.1005 21.2366L14.1063 21.2306L14.112 21.2246C15.494 19.7677 16.9706 19.6194 17.9882 19.5172C18.0946 19.5065 18.196 19.4963 18.2917 19.4852C21.6184 19.2436 25.7833 19.122 29.1303 19.061C30.8052 19.0305 32.2708 19.0152 33.3175 19.0076C33.8409 19.0038 34.2593 19.0019 34.5468 19.001C34.6905 19.0005 34.8014 19.0002 34.8763 19.0001L34.9612 19L34.9826 19L34.9879 19L34.9891 19H34.9894L34.9895 18V19H35.0105V18L35.0106 19H35.0109L35.0121 19L35.0174 19L35.0388 19L35.1237 19.0001C35.1986 19.0002 35.3095 19.0005 35.4532 19.001C35.7407 19.0019 36.1591 19.0038 36.6825 19.0076C37.7292 19.0152 39.1948 19.0305 40.8697 19.061C44.2167 19.122 48.3815 19.2436 51.7082 19.4852C51.804 19.4963 51.9055 19.5065 52.012 19.5172C53.029 19.6195 54.5059 19.768 55.8862 21.2243Z" stroke="#181617" stroke-width="2"/>
</g>
<defs>
<clipPath id="clip0_663_1685">
<rect width="48" height="48" fill="white" transform="translate(11 11)"/>
</clipPath>
</defs>
</svg>
