<svg width="34" height="34" viewBox="0 0 34 34" fill="none" xmlns="http://www.w3.org/2000/svg">
<g clip-path="url(#clip0_495_2334)">
<path d="M13.7038 19.0001V20.856L15.2538 19.8353L19.05 17.3353L20.3182 16.5001L19.05 15.665L15.2538 13.165L13.7038 12.1442V14.0001V19.0001ZM31.5827 7.443L31.5886 7.44919L31.5945 7.45527C31.9199 7.78706 32.2031 8.4289 32.4066 9.12466C32.5015 9.44937 32.5683 9.74694 32.6112 9.96321C32.6326 10.0708 32.6477 10.1569 32.6573 10.2144C32.6621 10.2432 32.6655 10.2647 32.6675 10.2781L32.6688 10.2864L32.6708 10.3032L32.6811 10.3918C32.6901 10.4701 32.703 10.5861 32.7186 10.7344C32.7498 11.0311 32.7916 11.4563 32.8333 11.967C32.9171 12.9911 33 14.3472 33 15.6953V18.2933C33 19.6419 32.9171 20.998 32.8333 22.0219C32.7916 22.5326 32.7498 22.9577 32.7186 23.2543C32.703 23.4025 32.6901 23.5185 32.6811 23.5968L32.6708 23.6853L32.6688 23.7022L32.6675 23.7104C32.6655 23.7239 32.6621 23.7454 32.6573 23.7741C32.6477 23.8317 32.6326 23.9178 32.6112 24.0253C32.5683 24.2416 32.5015 24.5392 32.4066 24.8639C32.2031 25.5597 31.9199 26.2015 31.5945 26.5333L31.5886 26.5394L31.5827 26.5456C30.6835 27.4943 29.7403 27.5915 29.024 27.6654C28.949 27.6731 28.8765 27.6806 28.8068 27.6887C26.4592 27.859 23.5167 27.9475 21.1475 27.9933C19.9615 28.0162 18.9234 28.0284 18.182 28.0348C17.8114 28.038 17.515 28.0397 17.3115 28.0407L17.0783 28.0416L17.0184 28.0418L17.0033 28.0418L17.003 28.0418L16.9842 28.0416L16.9101 28.0409L16.6259 28.0379C16.3796 28.0351 16.0245 28.031 15.5897 28.0251C14.7201 28.0134 13.5327 27.995 12.2609 27.9685C9.72521 27.9155 6.90988 27.8309 5.57787 27.7059C5.38934 27.6721 5.19451 27.6469 4.99582 27.6212C4.14266 27.5107 3.21827 27.3911 2.41596 26.5453L2.41023 26.5392L2.40441 26.5333C2.07915 26.2016 1.79623 25.56 1.593 24.8642C1.49816 24.5395 1.43149 24.242 1.38868 24.0257C1.36739 23.9182 1.35227 23.8321 1.34271 23.7746C1.33794 23.7458 1.33457 23.7243 1.33252 23.7109L1.33124 23.7024L1.3292 23.6853L1.31889 23.5968C1.30992 23.5185 1.29698 23.4025 1.28139 23.2543C1.25019 22.9577 1.20844 22.5326 1.16667 22.0219C1.0829 20.998 1 19.6419 1 18.2933V15.6953C1 14.3472 1.0829 12.9911 1.16667 11.967C1.20845 11.4563 1.25019 11.0311 1.28139 10.7344C1.29698 10.5862 1.30992 10.4701 1.3189 10.3918L1.3292 10.3032L1.33125 10.2861L1.33252 10.2777C1.33457 10.2643 1.33794 10.2427 1.34271 10.214C1.35227 10.1565 1.36739 10.0704 1.38868 9.96282C1.43149 9.74656 1.49816 9.44902 1.593 9.12434C1.79623 8.42861 2.07915 7.78694 2.40441 7.45527L2.41023 7.44933L2.41596 7.4433C3.31764 6.49273 4.26261 6.39654 4.97842 6.32367C5.05228 6.31616 5.12369 6.30889 5.19237 6.30095C7.53956 6.13071 10.4801 6.04479 12.8476 6.00166C14.0327 5.98008 15.0698 5.96928 15.8104 5.96389C16.1806 5.96119 16.4767 5.95984 16.6799 5.95917L16.9128 5.95858L16.9727 5.95851L16.9878 5.9585L16.9915 5.9585L16.9923 5.9585H16.9925L16.9926 4.9585V5.9585H17.0074V4.9585L17.0075 5.9585H17.0077L17.0085 5.9585L17.0122 5.9585L17.0273 5.95851L17.0872 5.95858L17.3201 5.95917C17.5233 5.95984 17.8194 5.96119 18.1896 5.96389C18.9302 5.96928 19.9673 5.98008 21.1524 6.00166C23.5198 6.04479 26.4604 6.13071 28.8075 6.30095C28.8763 6.3089 28.9478 6.31618 29.0217 6.32372C29.7372 6.39663 30.6822 6.49294 31.5827 7.443Z" stroke="#80858A" stroke-width="2"/>
</g>
<defs>
<clipPath id="clip0_495_2334">
<rect width="34" height="34" fill="white"/>
</clipPath>
</defs>
</svg>
