<svg width="123" height="123" viewBox="0 0 123 123" fill="none" xmlns="http://www.w3.org/2000/svg">
<g clip-path="url(#clip0_215_1473)">
<path fill-rule="evenodd" clip-rule="evenodd" d="M53.2511 80.3733V41.3244L83.5778 60.6061L53.2511 80.3733ZM121.404 37.0821C121.404 37.0821 120.209 28.5993 116.545 24.8637C111.896 19.9587 106.686 19.9355 104.298 19.6509C87.1923 18.4044 61.5334 18.4044 61.5334 18.4044H61.4799C61.4799 18.4044 35.821 18.4044 18.715 19.6509C16.3237 19.9355 11.1171 19.9587 6.46429 24.8637C2.80091 28.5993 1.60905 37.0821 1.60905 37.0821C1.60905 37.0821 0.386658 47.0461 0.386658 57.0062V66.347C0.386658 76.311 1.60905 86.2711 1.60905 86.2711C1.60905 86.2711 2.80091 94.754 6.46429 98.4895C11.1171 103.395 17.2252 103.241 19.945 103.752C29.7242 104.699 61.5067 104.991 61.5067 104.991C61.5067 104.991 87.1923 104.953 104.298 103.706C106.686 103.418 111.896 103.395 116.545 98.4895C120.209 94.754 121.404 86.2711 121.404 86.2711C121.404 86.2711 122.627 76.311 122.627 66.347V57.0062C122.627 47.0461 121.404 37.0821 121.404 37.0821Z" fill="white"/>
</g>
<defs>
<clipPath id="clip0_215_1473">
<rect width="122.24" height="122.24" fill="white" transform="translate(0.386658 0.577759)"/>
</clipPath>
</defs>
</svg>
