<svg width="54" height="54" viewBox="0 0 54 54" fill="none" xmlns="http://www.w3.org/2000/svg">
<g clip-path="url(#clip0_23_330)">
<path d="M27 0C12.0867 0 0 12.0867 0 27C0 41.9133 12.0867 54 27 54C41.9133 54 54 41.9133 54 27C54 12.0867 41.9133 0 27 0ZM43.8539 43.8434C41.6602 46.0371 39.1184 47.7562 36.2812 48.948C33.3492 50.1926 30.2273 50.8148 27 50.8148C23.7832 50.8148 20.6613 50.182 17.7188 48.948C14.8816 47.7457 12.3293 46.0266 10.1461 43.8434C7.95234 41.6496 6.2332 39.1078 5.04141 36.2707C3.79688 33.3387 3.16406 30.2168 3.16406 27C3.16406 23.7832 3.79687 20.6613 5.03086 17.7188C6.2332 14.8816 7.95234 12.3293 10.1355 10.1461C12.3398 7.95234 14.8816 6.2332 17.7188 5.03086C20.6613 3.79687 23.7832 3.16406 27 3.16406C30.2168 3.16406 33.3387 3.79687 36.2812 5.03086C39.1184 6.2332 41.6707 7.95234 43.8539 10.1355C46.0477 12.3293 47.7668 14.8711 48.9586 17.7082C50.2031 20.6402 50.8254 23.7621 50.8254 26.9895C50.8254 30.2062 50.1926 33.3281 48.9586 36.2707C47.7563 39.1078 46.0371 41.6602 43.8539 43.8434Z" fill="#87ED06"/>
<path d="M30.5649 17.7926C31.6512 17.7926 32.8114 18.1301 32.8114 18.1301L33.5074 13.9958C33.5074 13.9958 32.0309 13.4895 28.5082 13.4895C26.3461 13.4895 25.091 14.3122 24.1735 15.5251C23.3086 16.6747 23.277 18.5204 23.277 19.7122V22.4227H20.4821V26.4622H23.277V40.4895H28.5082V26.4622H32.6532L32.959 22.4227H28.5082V19.2692C28.5082 18.1829 29.4785 17.7926 30.5649 17.7926Z" fill="#87ED06"/>
</g>
<defs>
<clipPath id="clip0_23_330">
<rect width="54" height="54" fill="white"/>
</clipPath>
</defs>
</svg>
