<svg width="243" height="329" viewBox="0 0 243 329" fill="none" xmlns="http://www.w3.org/2000/svg">
<path d="M181.473 7.69254H180.473V8.69254V19.2478C180.473 22.42 177.814 25.0776 174.637 25.0776H73.335C70.1575 25.0776 67.4987 22.42 67.4987 19.2478V8.69254V7.69254H66.4987H29.8312C17.4716 7.69254 7.70077 17.4528 7.70077 29.803V461.946C7.70077 474.296 17.4716 484.057 29.8312 484.057H212.547C224.869 484.057 235.299 474.334 235.299 461.946V29.803C235.299 17.4155 224.869 7.69254 212.547 7.69254H181.473ZM29.8312 1H212.547C228.789 1 242 14.2262 242 29.803V469.397C242 485.581 228.803 498.2 212.547 498.2H29.8312C14.2104 498.2 1 485.595 1 469.397V29.803C1 14.2129 14.224 1 29.8312 1Z" stroke="#87ED06" stroke-width="2"/>
</svg>
