<svg width="243" height="329" viewBox="0 0 243 329" fill="none" xmlns="http://www.w3.org/2000/svg">
<path d="M181.473 7.69254H180.473V8.69254V19.2478C180.473 22.42 177.814 25.0776 174.637 25.0776H73.335C70.1575 25.0776 67.4987 22.42 67.4987 19.2478V8.69254V7.69254H66.4987H29.8312C17.4716 7.69254 7.70077 17.4528 7.70077 29.803V461.946C7.70077 474.296 17.4716 484.057 29.8312 484.057H212.547C224.869 484.057 235.299 474.334 235.299 461.946V29.803C235.299 17.4155 224.869 7.69254 212.547 7.69254H181.473ZM29.8312 1H212.547C228.789 1 242 14.2262 242 29.803V469.397C242 485.581 228.803 498.2 212.547 498.2H29.8312C14.2104 498.2 1 485.595 1 469.397V29.803C1 14.2129 14.224 1 29.8312 1Z" stroke="#87ED06" stroke-width="2"/>
<g clip-path="url(#clip0_27_336)">
<path d="M175.976 130.904L193.476 111H189.33L174.129 128.278L161.997 111H148L166.35 137.131L148 158H152.145L168.188 139.749L181.003 158H195M153.642 114.059H160.01L189.327 155.091H182.957" fill="#87ED06"/>
</g>
<g clip-path="url(#clip1_27_336)">
<path d="M63 205C48.0867 205 36 217.087 36 232C36 246.913 48.0867 259 63 259C77.9133 259 90 246.913 90 232C90 217.087 77.9133 205 63 205ZM79.8539 248.843C77.6602 251.037 75.1184 252.756 72.2812 253.948C69.3492 255.193 66.2273 255.815 63 255.815C59.7832 255.815 56.6613 255.182 53.7188 253.948C50.8816 252.746 48.3293 251.027 46.1461 248.843C43.9523 246.65 42.2332 244.108 41.0414 241.271C39.7969 238.339 39.1641 235.217 39.1641 232C39.1641 228.783 39.7969 225.661 41.0309 222.719C42.2332 219.882 43.9523 217.329 46.1355 215.146C48.3398 212.952 50.8816 211.233 53.7188 210.031C56.6613 208.797 59.7832 208.164 63 208.164C66.2168 208.164 69.3387 208.797 72.2812 210.031C75.1184 211.233 77.6707 212.952 79.8539 215.136C82.0477 217.329 83.7668 219.871 84.9586 222.708C86.2031 225.64 86.8254 228.762 86.8254 231.989C86.8254 235.206 86.1926 238.328 84.9586 241.271C83.7563 244.108 82.0371 246.66 79.8539 248.843Z" fill="#87ED06"/>
<path d="M66.5649 222.793C67.6512 222.793 68.8114 223.13 68.8114 223.13L69.5074 218.996C69.5074 218.996 68.0309 218.49 64.5082 218.49C62.3461 218.49 61.091 219.312 60.1735 220.525C59.3086 221.675 59.277 223.52 59.277 224.712V227.423H56.4821V231.462H59.277V245.49H64.5082V231.462H68.6532L68.959 227.423H64.5082V224.269C64.5082 223.183 65.4785 222.793 66.5649 222.793Z" fill="#87ED06"/>
</g>
<g clip-path="url(#clip2_27_336)">
<path d="M167.948 237.893V239.634L169.452 238.756L180.468 232.328L181.915 231.484L180.485 230.611L169.469 223.884L167.948 222.955V224.737V237.893ZM199.289 214.608L199.295 214.615L199.301 214.621C200.016 215.35 200.558 216.641 200.922 217.887C201.097 218.487 201.22 219.035 201.299 219.433C201.339 219.631 201.367 219.791 201.385 219.9C201.394 219.954 201.4 219.995 201.404 220.022L201.409 220.05L201.409 220.051L201.409 220.052L201.414 220.092C201.418 220.127 201.424 220.181 201.432 220.251C201.448 220.392 201.471 220.599 201.499 220.863C201.555 221.391 201.629 222.148 201.703 223.056C201.852 224.874 202 227.29 202 229.697V234.282C202 236.69 201.852 239.106 201.703 240.924C201.629 241.832 201.555 242.588 201.499 243.117C201.471 243.381 201.448 243.588 201.432 243.728C201.424 243.798 201.418 243.852 201.414 243.887L201.409 243.927L201.409 243.928L201.409 243.929L201.404 243.957C201.4 243.984 201.394 244.026 201.385 244.08C201.367 244.188 201.339 244.348 201.299 244.546C201.22 244.944 201.097 245.492 200.922 246.092C200.558 247.338 200.016 248.63 199.301 249.359L199.295 249.365L199.289 249.371C197.5 251.259 195.57 251.454 194.294 251.583C194.157 251.596 194.029 251.609 193.908 251.624C189.741 251.926 184.524 252.083 180.334 252.164C178.238 252.205 176.403 252.226 175.092 252.238C174.437 252.243 173.913 252.246 173.553 252.248C173.373 252.249 173.234 252.249 173.141 252.25L173.034 252.25L173.007 252.25L173.001 252.25L172.999 252.25H172.999L172.998 252.25L172.965 252.25L172.834 252.248L172.331 252.243C171.896 252.238 171.269 252.231 170.501 252.22C168.965 252.2 166.868 252.167 164.621 252.12C160.135 252.027 155.111 251.876 152.739 251.651C152.454 251.599 152.14 251.559 151.806 251.517C150.281 251.325 148.329 251.079 146.709 249.371L146.703 249.365L146.697 249.359C145.982 248.63 145.441 247.338 145.077 246.092C144.902 245.492 144.779 244.944 144.7 244.547C144.661 244.348 144.633 244.189 144.615 244.08C144.606 244.026 144.6 243.985 144.596 243.958L144.591 243.93L144.591 243.929L144.591 243.927L144.586 243.887C144.582 243.852 144.576 243.798 144.568 243.728C144.552 243.588 144.529 243.381 144.501 243.117C144.445 242.588 144.371 241.832 144.297 240.924C144.148 239.106 144 236.69 144 234.282V229.697C144 227.29 144.148 224.874 144.297 223.056C144.371 222.148 144.445 221.391 144.501 220.863C144.529 220.599 144.552 220.392 144.568 220.251C144.576 220.181 144.582 220.127 144.586 220.092L144.591 220.052L144.591 220.05L144.596 220.021C144.6 219.995 144.606 219.953 144.615 219.899C144.633 219.791 144.661 219.631 144.7 219.433C144.779 219.035 144.902 218.487 145.077 217.887C145.441 216.641 145.982 215.35 146.697 214.621L146.703 214.615L146.709 214.609C148.502 212.718 150.435 212.525 151.711 212.397C151.845 212.384 151.972 212.371 152.091 212.358C156.257 212.055 161.472 211.903 165.658 211.826C167.753 211.788 169.586 211.769 170.895 211.76C171.55 211.755 172.073 211.752 172.433 211.751C172.612 211.751 172.751 211.75 172.845 211.75L172.951 211.75L172.978 211.75L172.985 211.75L172.986 211.75H172.987L172.987 210.75V211.75H173.013V210.75L173.013 211.75H173.014L173.015 211.75L173.022 211.75L173.049 211.75L173.155 211.75C173.249 211.75 173.388 211.751 173.567 211.751C173.927 211.752 174.45 211.755 175.105 211.76C176.414 211.769 178.247 211.788 180.342 211.826C184.528 211.903 189.743 212.055 193.909 212.358C194.028 212.371 194.155 212.384 194.289 212.398C195.564 212.525 197.497 212.718 199.289 214.608Z" stroke="#87ED06" stroke-width="2"/>
</g>
<path d="M53.94 75V54H57.18V75H53.94ZM55.38 66.06V62.94H66.21V66.06H55.38ZM55.38 57.12V54H67.56V57.12H55.38ZM77.8474 75.3C76.3074 75.3 74.9274 74.95 73.7074 74.25C72.5074 73.53 71.5574 72.56 70.8574 71.34C70.1574 70.1 69.8074 68.69 69.8074 67.11C69.8074 65.53 70.1574 64.13 70.8574 62.91C71.5574 61.67 72.5074 60.7 73.7074 60C74.9274 59.28 76.3074 58.92 77.8474 58.92C79.3674 58.92 80.7274 59.28 81.9274 60C83.1474 60.7 84.1074 61.67 84.8074 62.91C85.5074 64.13 85.8574 65.53 85.8574 67.11C85.8574 68.69 85.5074 70.1 84.8074 71.34C84.1074 72.56 83.1474 73.53 81.9274 74.25C80.7274 74.95 79.3674 75.3 77.8474 75.3ZM77.8474 72.48C78.7874 72.48 79.6274 72.25 80.3674 71.79C81.1074 71.31 81.6874 70.67 82.1074 69.87C82.5274 69.05 82.7274 68.13 82.7074 67.11C82.7274 66.07 82.5274 65.15 82.1074 64.35C81.6874 63.53 81.1074 62.89 80.3674 62.43C79.6274 61.97 78.7874 61.74 77.8474 61.74C76.9074 61.74 76.0574 61.98 75.2974 62.46C74.5574 62.92 73.9774 63.56 73.5574 64.38C73.1374 65.18 72.9374 66.09 72.9574 67.11C72.9374 68.13 73.1374 69.05 73.5574 69.87C73.9774 70.67 74.5574 71.31 75.2974 71.79C76.0574 72.25 76.9074 72.48 77.8474 72.48ZM89.2845 75V52.8H92.3745V75H89.2845ZM96.8138 75V52.8H99.9038V75H96.8138ZM111.07 75.3C109.53 75.3 108.15 74.95 106.93 74.25C105.73 73.53 104.78 72.56 104.08 71.34C103.38 70.1 103.03 68.69 103.03 67.11C103.03 65.53 103.38 64.13 104.08 62.91C104.78 61.67 105.73 60.7 106.93 60C108.15 59.28 109.53 58.92 111.07 58.92C112.59 58.92 113.95 59.28 115.15 60C116.37 60.7 117.33 61.67 118.03 62.91C118.73 64.13 119.08 65.53 119.08 67.11C119.08 68.69 118.73 70.1 118.03 71.34C117.33 72.56 116.37 73.53 115.15 74.25C113.95 74.95 112.59 75.3 111.07 75.3ZM111.07 72.48C112.01 72.48 112.85 72.25 113.59 71.79C114.33 71.31 114.91 70.67 115.33 69.87C115.75 69.05 115.95 68.13 115.93 67.11C115.95 66.07 115.75 65.15 115.33 64.35C114.91 63.53 114.33 62.89 113.59 62.43C112.85 61.97 112.01 61.74 111.07 61.74C110.13 61.74 109.28 61.98 108.52 62.46C107.78 62.92 107.2 63.56 106.78 64.38C106.36 65.18 106.16 66.09 106.18 67.11C106.16 68.13 106.36 69.05 106.78 69.87C107.2 70.67 107.78 71.31 108.52 71.79C109.28 72.25 110.13 72.48 111.07 72.48ZM125.731 75L120.361 59.25L123.481 59.22L127.321 71.01L126.631 70.95L130.801 61.74H132.661L136.861 70.98L136.051 71.04L139.921 59.25H143.041L137.731 75H135.601L131.221 64.98L131.911 65.07L127.831 75H125.731ZM159.784 75.3C158.664 75.3 157.684 75.04 156.844 74.52C156.024 74 155.384 73.27 154.924 72.33C154.484 71.39 154.264 70.27 154.264 68.97V59.25H157.354V68.13C157.354 69.05 157.494 69.85 157.774 70.53C158.074 71.19 158.494 71.7 159.034 72.06C159.594 72.42 160.264 72.6 161.044 72.6C161.624 72.6 162.154 72.51 162.634 72.33C163.114 72.13 163.524 71.86 163.864 71.52C164.224 71.18 164.504 70.77 164.704 70.29C164.904 69.81 165.004 69.29 165.004 68.73V59.25H168.094V75H165.004V71.7L165.544 71.34C165.304 72.08 164.894 72.75 164.314 73.35C163.754 73.95 163.084 74.43 162.304 74.79C161.524 75.13 160.684 75.3 159.784 75.3ZM177.678 75.3C176.358 75.3 175.168 75.07 174.108 74.61C173.048 74.15 172.168 73.47 171.468 72.57L173.568 70.77C174.168 71.47 174.818 71.98 175.518 72.3C176.238 72.6 177.048 72.75 177.948 72.75C178.308 72.75 178.638 72.71 178.938 72.63C179.258 72.53 179.528 72.39 179.748 72.21C179.988 72.03 180.168 71.82 180.288 71.58C180.408 71.32 180.468 71.04 180.468 70.74C180.468 70.22 180.278 69.8 179.898 69.48C179.698 69.34 179.378 69.19 178.938 69.03C178.518 68.85 177.968 68.67 177.288 68.49C176.128 68.19 175.178 67.85 174.438 67.47C173.698 67.09 173.128 66.66 172.728 66.18C172.428 65.8 172.208 65.39 172.068 64.95C171.928 64.49 171.858 63.99 171.858 63.45C171.858 62.79 171.998 62.19 172.278 61.65C172.578 61.09 172.978 60.61 173.478 60.21C173.998 59.79 174.598 59.47 175.278 59.25C175.978 59.03 176.718 58.92 177.498 58.92C178.238 58.92 178.968 59.02 179.688 59.22C180.428 59.42 181.108 59.71 181.728 60.09C182.348 60.47 182.868 60.92 183.288 61.44L181.518 63.39C181.138 63.01 180.718 62.68 180.258 62.4C179.818 62.1 179.368 61.87 178.908 61.71C178.448 61.55 178.028 61.47 177.648 61.47C177.228 61.47 176.848 61.51 176.508 61.59C176.168 61.67 175.878 61.79 175.638 61.95C175.418 62.11 175.248 62.31 175.128 62.55C175.008 62.79 174.948 63.06 174.948 63.36C174.968 63.62 175.028 63.87 175.128 64.11C175.248 64.33 175.408 64.52 175.608 64.68C175.828 64.84 176.158 65.01 176.598 65.19C177.038 65.37 177.598 65.54 178.278 65.7C179.278 65.96 180.098 66.25 180.738 66.57C181.398 66.87 181.918 67.22 182.298 67.62C182.698 68 182.978 68.44 183.138 68.94C183.298 69.44 183.378 70 183.378 70.62C183.378 71.52 183.118 72.33 182.598 73.05C182.098 73.75 181.418 74.3 180.558 74.7C179.698 75.1 178.738 75.3 177.678 75.3ZM187.233 67.77C187.093 66.51 186.963 65.21 186.843 63.87C186.743 62.51 186.663 61.17 186.603 59.85C186.543 58.53 186.513 57.28 186.513 56.1V54H189.753V56.1C189.753 57.34 189.723 58.64 189.663 60C189.603 61.36 189.513 62.71 189.393 64.05C189.293 65.37 189.173 66.61 189.033 67.77H187.233ZM188.043 75.33C187.383 75.33 186.873 75.14 186.513 74.76C186.153 74.36 185.973 73.8 185.973 73.08C185.973 72.42 186.163 71.88 186.543 71.46C186.923 71.04 187.423 70.83 188.043 70.83C188.703 70.83 189.213 71.03 189.573 71.43C189.933 71.81 190.113 72.36 190.113 73.08C190.113 73.74 189.923 74.28 189.543 74.7C189.163 75.12 188.663 75.33 188.043 75.33Z" fill="#87ED06"/>
<path d="M54.5 160H69.5C82 160 87 155 87 142.5V127.5C87 115 82 110 69.5 110H54.5C42 110 37 115 37 127.5V142.5C37 155 42 160 54.5 160Z" stroke="#87ED06" stroke-width="3" stroke-linecap="round" stroke-linejoin="round"/>
<path d="M62 143.75C66.8325 143.75 70.75 139.832 70.75 135C70.75 130.167 66.8325 126.25 62 126.25C57.1675 126.25 53.25 130.167 53.25 135C53.25 139.832 57.1675 143.75 62 143.75Z" stroke="#87ED06" stroke-width="3" stroke-linecap="round" stroke-linejoin="round"/>
<path d="M76.0902 122.5H76.1214" stroke="#87ED06" stroke-width="3" stroke-linecap="round" stroke-linejoin="round"/>
<defs>
<clipPath id="clip0_27_336">
<rect width="47" height="47" fill="white" transform="translate(148 111)"/>
</clipPath>
<clipPath id="clip1_27_336">
<rect width="54" height="54" fill="white" transform="translate(36 205)"/>
</clipPath>
<clipPath id="clip2_27_336">
<rect width="60" height="60" fill="white" transform="translate(143 202)"/>
</clipPath>
</defs>
</svg>
