<svg width="68" height="83" viewBox="0 0 68 83" fill="none" xmlns="http://www.w3.org/2000/svg">
<g clip-path="url(#clip0_23_319)">
<path d="M1.86513 33.6247C-0.710018 34.9847 -0.603184 36.9766 2.09661 38.0521L10.0958 41.2382C12.7978 42.3182 16.8865 41.7289 19.1767 39.9297L53.9134 12.3525C56.197 10.5443 56.4419 10.811 54.4587 12.9485L26.9979 42.5378C25.0081 44.6686 25.5957 47.2856 28.3066 48.3409L29.2436 48.7084C31.9546 49.7637 36.3726 51.536 39.0657 52.6384L47.9374 56.2749C50.6327 57.3772 53.5128 56.0777 54.2785 53.2545L67.7997 3.22208C68.5631 0.398929 67.0808 -0.799788 64.5056 0.558011L1.86513 33.6247Z" fill="#ED4101"/>
<path d="M23.8174 66.3798C23.6594 66.8571 29.2882 58.1748 29.2882 58.1748C30.8796 55.7281 29.9759 52.8086 27.2873 51.7017L21.1488 49.1721C18.4601 48.0652 17.1714 49.3648 18.2843 52.0692C18.2843 52.0692 23.9799 65.8892 23.8174 66.3798Z" fill="#ED4101"/>
</g>
<defs>
<clipPath id="clip0_23_319">
<rect width="68" height="83" fill="white"/>
</clipPath>
</defs>
</svg>
