<svg width="60" height="60" viewBox="0 0 60 60" fill="none" xmlns="http://www.w3.org/2000/svg">
<g clip-path="url(#clip0_23_315)">
<path d="M24.9479 35.8928V37.6341L26.4519 36.7565L37.4683 30.3279L38.915 29.4837L37.4854 28.6107L26.469 21.8836L24.9479 20.9547V22.737V35.8928ZM56.2892 12.6084L56.2951 12.6146L56.301 12.6206C57.016 13.3497 57.5575 14.6412 57.922 15.8874C58.0975 16.4873 58.2204 17.0352 58.2993 17.4331C58.3387 17.6314 58.3668 17.7911 58.3849 17.8995C58.3939 17.9537 58.4004 17.995 58.4045 18.0218L58.4087 18.0498L58.4089 18.051L58.4089 18.0518L58.4137 18.0917C58.4179 18.1274 58.4242 18.181 58.4323 18.2512C58.4484 18.3916 58.4715 18.5987 58.4992 18.8629C58.5548 19.3913 58.6291 20.1476 58.7033 21.0557C58.8521 22.8744 59 25.2899 59 27.6972V32.282C59 34.6903 58.8521 37.1058 58.7033 38.9243C58.6291 39.8322 58.5548 40.5883 58.4992 41.1166C58.4715 41.3807 58.4484 41.5877 58.4323 41.7281C58.4242 41.7983 58.418 41.8518 58.4137 41.8875L58.4089 41.9274L58.4089 41.9282L58.4087 41.9293L58.4045 41.9574C58.4004 41.9842 58.3939 42.0255 58.3849 42.0797C58.3668 42.1882 58.3387 42.3478 58.2993 42.5462C58.2204 42.944 58.0975 43.4919 57.922 44.0919C57.5575 45.338 57.016 46.6295 56.301 47.3586L56.2951 47.3647L56.2892 47.3709C54.4998 49.2588 52.57 49.4537 51.2936 49.5826C51.1574 49.5964 51.0285 49.6094 50.9081 49.6236C46.7414 49.9264 41.5237 50.0833 37.334 50.1643C35.2376 50.2048 33.4029 50.2262 32.0925 50.2375C31.4373 50.2432 30.9134 50.2463 30.5534 50.248C30.3734 50.2489 30.2344 50.2494 30.1406 50.2496L30.0342 50.2499L30.0073 50.25L30.0006 50.25L29.999 50.25H29.9986L29.9981 50.2499L29.9647 50.2496L29.8337 50.2483L29.3314 50.243C28.8961 50.2382 28.2688 50.2307 27.501 50.2204C25.9651 50.1997 23.8677 50.1673 21.6209 50.1204C17.1354 50.0268 12.1109 49.8763 9.73874 49.6507C9.45363 49.599 9.14023 49.5595 8.80646 49.5174C7.2807 49.3251 5.32926 49.0791 3.70865 47.3706L3.70292 47.3645L3.6971 47.3586C2.98225 46.6297 2.44116 45.3383 2.07715 44.0922C1.90192 43.4923 1.77921 42.9444 1.70046 42.5466C1.6612 42.3482 1.63314 42.1886 1.61512 42.0801C1.60612 42.026 1.59965 41.9847 1.59555 41.9578L1.59132 41.9296L1.59118 41.9286L1.59106 41.9274L1.58628 41.8875C1.58204 41.8518 1.57576 41.7983 1.56772 41.7281C1.55164 41.5877 1.52854 41.3807 1.50076 41.1166C1.44519 40.5883 1.37094 39.8322 1.29667 38.9243C1.1479 37.1058 1 34.6903 1 32.282V27.6972C1 25.2899 1.1479 22.8744 1.29667 21.0557C1.37094 20.1476 1.44519 19.3913 1.50076 18.8629C1.52854 18.5987 1.55164 18.3916 1.56772 18.2512C1.57576 18.181 1.58205 18.1274 1.58628 18.0917L1.59106 18.0518L1.59132 18.0496L1.59555 18.0214C1.59965 17.9946 1.60612 17.9533 1.61512 17.8991C1.63314 17.7907 1.6612 17.631 1.70046 17.4327C1.77921 17.0348 1.90192 16.4869 2.07715 15.8871C2.44116 14.641 2.98225 13.3496 3.6971 12.6206L3.70292 12.6147L3.70865 12.6087C5.50246 10.7176 7.43503 10.5248 8.7109 10.3975C8.84521 10.3841 8.97224 10.3714 9.09107 10.3575C13.2574 10.0548 18.4718 9.90257 22.6584 9.82631C24.753 9.78815 26.586 9.76907 27.8951 9.75953C28.5496 9.75476 29.073 9.75238 29.4326 9.75119C29.6124 9.75059 29.7512 9.7503 29.845 9.75015L29.9513 9.75002L29.9781 9.75L29.9848 9.75L29.9864 9.75H29.9868L29.9869 8.75V9.75H30.0131V8.75L30.0132 9.75H30.0136L30.0152 9.75L30.0219 9.75L30.0487 9.75002L30.155 9.75015C30.2488 9.7503 30.3876 9.75059 30.5674 9.75119C30.927 9.75238 31.4504 9.75476 32.1049 9.75953C33.414 9.76907 35.247 9.78815 37.3416 9.82631C41.5282 9.90257 46.7426 10.0548 50.9088 10.3575C51.0277 10.3714 51.1549 10.3841 51.2893 10.3975C52.5644 10.5249 54.4975 10.718 56.2892 12.6084Z" stroke="#87ED06" stroke-width="2"/>
</g>
<defs>
<clipPath id="clip0_23_315">
<rect width="60" height="60" fill="white"/>
</clipPath>
</defs>
</svg>
